<svg width="26" height="24" viewBox="0 0 26 24" fill="none" xmlns="http://www.w3.org/2000/svg">
<path d="M12.8571 0L25.7143 5.14286V6.85714H24C24 7.08929 23.9085 7.29018 23.7254 7.45982C23.5424 7.62946 23.3259 7.71429 23.0759 7.71429H2.63839C2.38839 7.71429 2.17188 7.62946 1.98884 7.45982C1.8058 7.29018 1.71429 7.08929 1.71429 6.85714H0V5.14286L12.8571 0ZM3.42857 8.57143H6.85714V18.8571H8.57143V8.57143H12V18.8571H13.7143V8.57143H17.1429V18.8571H18.8571V8.57143H22.2857V18.8571H23.0759C23.3259 18.8571 23.5424 18.942 23.7254 19.1116C23.9085 19.2813 24 19.4821 24 19.7143V20.5714H1.71429V19.7143C1.71429 19.4821 1.8058 19.2813 1.98884 19.1116C2.17188 18.942 2.38839 18.8571 2.63839 18.8571H3.42857V8.57143ZM24.7902 21.4286C25.0402 21.4286 25.2567 21.5134 25.4397 21.683C25.6228 21.8527 25.7143 22.0536 25.7143 22.2857V24H0V22.2857C0 22.0536 0.0915179 21.8527 0.274554 21.683C0.457589 21.5134 0.674107 21.4286 0.924107 21.4286H24.7902Z" fill="white"/>
</svg>
