<svg width="24" height="22" viewBox="0 0 24 22" fill="none" xmlns="http://www.w3.org/2000/svg">
<path d="M21.6 3.6H20.4V21.6H21.6C22.92 21.6 24 20.52 24 19.2V6C24 4.68 22.92 3.6 21.6 3.6ZM0 6V19.2C0 20.52 1.0788 21.6 2.4 21.6H3.6V3.6H2.4C1.0788 3.6 0 4.68 0 6ZM16.2 1.0872C15.3828 0.708 13.9332 0 11.9772 0C10.0176 0 8.6172 0.708 7.8 1.0872V3.6H4.8V21.6H19.2V3.6H16.2V1.0872V1.0872ZM14.4 3.6H9.6V1.9968C10.2408 1.7208 10.8936 1.4388 11.9772 1.4388C13.0596 1.4388 13.7604 1.7196 14.4 1.9968V3.6Z" fill="white"/>
</svg>
